<mxfile host="app.diagrams.net" modified="2024-04-25T13:15:32.758Z" agent="Mozilla/5.0 (Macintosh; Intel Mac OS X 10_15_7) AppleWebKit/537.36 (KHTML, like Gecko) Chrome/124.0.0.0 Safari/537.36" version="24.3.0" etag="a_I1RoINYHxblmOH3-u_" type="github">
  <diagram name="Page-1" id="oGlESGnLjQOYDkgPelsJ">
    <mxGraphModel>
      <root>
        <mxCell id="0" />
        <mxCell id="1" parent="0" />
      </root>
    </mxGraphModel>
  </diagram>
</mxfile>
